# xmcd
#
# Track frame offsets: 
#        150
#        20932
#        39273
#        57468
#        82209
#        99669
#        113865
#        126028
#        144699
#        163427
#        179967
#
# Disc length: 2695 seconds
#
# Revision: 6
# Processed by: cddbd v1.5.2PL0 Copyright (c) Steve Scherf et al.
# Submitted via: ExactAudioCopy v0.99pb4
#
DISCID=ac0a850b
DTITLE=Александр Розенбаум - На Плантациях Любви
DYEAR=1996
DGENRE=Chanson
TTITLE0=Воскресение
TTITLE1=Где-Нибудь, Как-Нибудь
TTITLE2=Не Хочу Стареть
TTITLE3=На Плантациях Любви
TTITLE4=Ветер-Конокрад
TTITLE5=Необычно, Незнакомо
TTITLE6=Одинокий Волк
TTITLE7=Мой Брат
TTITLE8=Афганская Вьюга
TTITLE9=Перекати-Поле
TTITLE10=Ау
EXTD=© 1996 А.Розенбаум\n(P) 1996 А.Фрумин и "MASTER SOUND" для студии
EXTD="Союз" MS 091\n\nАлександр Розенбаум - стихи, музыка, акустическ
EXTD=ая гитара\n\nВ записи принимали участие:\nНиколай Жемчужный (Реза
EXTD=нов) - гитары\nВиктор Смирнов - аккордеон, клавишные\nЗвукорежисс
EXTD=ёры: Алескандр Фрумин и Вячеслав Распопов\nПродюсер А.Розенбаума 
EXTD=Белла Купсина\nПродюсер - Александр Фрумин\n\nЗаписано в марте-
EXTD=мае 1996 года на студии "Ночное такси", Санкт-Петербург
EXTT0=
EXTT1=
EXTT2=
EXTT3=
EXTT4=
EXTT5=
EXTT6=
EXTT7=
EXTT8=
EXTT9=
EXTT10=
PLAYORDER=
